<svg width="1444" height="777" viewBox="0 0 1444 777" fill="none" xmlns="http://www.w3.org/2000/svg">
<path d="M410.058 118L435.431 38.1452H457.518L483.004 118H472.243L462.615 87.4173H430.333L420.706 118H410.058ZM433.165 78.5823H459.783L447.89 40.977H445.058L433.165 78.5823ZM488.471 118V38.1452H515.429C535.137 38.1452 546.351 41.9964 546.351 57.6275C546.351 69.2943 538.309 73.9383 530.154 74.6179V77.3364C542.387 77.6762 552.241 82.3202 552.241 96.7054C552.241 113.016 539.782 118 520.186 118H488.471ZM498.778 109.392H520.526C533.892 109.392 541.934 107.353 541.934 95.0064C541.934 83.4529 533.778 80.5079 520.526 80.5079H498.778V109.392ZM498.778 72.3525H515.882C528.341 72.3525 536.157 70.6535 536.157 59.4398C536.157 47.32 528.455 46.5272 515.882 46.5272H498.778V72.3525ZM625.459 96.7054C625.459 110.977 615.831 119.246 594.537 119.246C570.297 119.246 557.837 108.032 557.837 87.9837H568.258C568.258 103.275 577.206 110.524 594.763 110.524C608.582 110.524 615.038 106.107 615.038 97.2717C615.038 91.0419 610.961 86.2846 601.673 83.906L579.358 78.1293C566.786 74.8445 561.575 67.5952 561.575 58.0806C561.575 44.2618 571.543 36.8993 589.893 36.8993C611.64 36.8993 623.08 47.32 623.08 64.537H612.546C612.546 51.8508 604.957 45.5077 589.893 45.5077C578.226 45.5077 571.996 49.4722 571.996 57.6275C571.996 63.291 575.394 67.5952 584.116 69.8606L606.203 75.4108C619.116 78.6956 625.459 86.1714 625.459 96.7054ZM631.082 78.016C631.082 54.6825 645.127 36.8993 668.8 36.8993C692.474 36.8993 706.406 54.6825 706.406 78.016C706.406 101.463 692.474 119.246 668.8 119.246C645.127 119.246 631.082 101.463 631.082 78.016ZM641.503 78.016C641.503 96.8187 650.451 110.298 668.8 110.298C687.15 110.298 696.098 96.8187 696.098 78.016C696.098 59.3266 687.15 45.8475 668.8 45.8475C650.451 45.8475 641.503 59.3266 641.503 78.016ZM722.632 118C718.101 118 715.496 115.508 715.496 110.864V38.1452H725.803V109.165H765.787V118H722.632ZM765.974 88.3235V38.1452H776.281V86.1714C776.281 102.142 781.378 110.298 798.029 110.298C814.68 110.298 820.003 102.142 820.003 86.1714V38.1452H830.311V88.3235C830.311 108.259 820.003 119.246 798.029 119.246C776.055 119.246 765.974 108.259 765.974 88.3235ZM835.72 38.1452H900.963V46.9802H873.552V118H863.245V46.9802H835.72V38.1452ZM907.345 118V38.1452H962.847V46.9802H917.653V73.7118H957.184V82.3202H917.653V109.165H962.847V118H907.345Z" fill="#141414"/>
<path d="M8.15538 241.952V162.097H33.8675C53.5763 162.097 74.3046 167.648 74.3046 201.968C74.3046 236.402 53.5763 241.952 33.8675 241.952H8.15538ZM18.4629 233.117H33.8675C48.0261 233.117 63.9971 230.852 63.9971 201.968C63.9971 173.198 47.9129 170.932 33.8675 170.932H18.4629V233.117ZM74.6939 162.097H120.681V170.932H102.785V233.117H120.681V241.952H74.6939V233.117H92.5905V170.932H74.6939V162.097ZM191.248 220.658C191.248 234.929 181.62 243.198 160.325 243.198C136.086 243.198 123.626 231.984 123.626 211.936H134.047C134.047 227.227 142.995 234.476 160.552 234.476C174.371 234.476 180.827 230.059 180.827 221.224C180.827 214.994 176.749 210.237 167.461 207.858L145.147 202.081C132.574 198.797 127.364 191.547 127.364 182.033C127.364 168.214 137.332 160.851 155.681 160.851C177.429 160.851 188.869 171.272 188.869 188.489H178.335C178.335 175.803 170.746 169.46 155.681 169.46C144.015 169.46 137.785 173.424 137.785 181.58C137.785 187.243 141.183 191.547 149.905 193.813L171.992 199.363C184.905 202.648 191.248 210.124 191.248 220.658ZM234.703 243.198C210.916 243.198 196.871 225.415 196.871 201.968C196.871 178.635 210.916 160.851 234.703 160.851C255.318 160.851 268.797 173.085 271.175 192.907H260.868C259.055 178.295 249.881 169.8 234.703 169.8C216.693 169.8 207.291 183.052 207.291 201.968C207.291 220.997 216.693 234.25 234.703 234.25C249.881 234.25 259.055 225.641 260.868 211.03H271.175C268.797 230.965 255.318 243.198 234.703 243.198ZM274.287 162.097H320.274V170.932H302.377V233.117H320.274V241.952H274.287V233.117H292.183V170.932H274.287V162.097ZM329.822 241.952V162.097H353.042C374.337 162.097 386.343 168.214 386.343 188.489C386.343 208.878 374.337 214.994 353.042 214.994H340.13V241.952H329.822ZM340.13 206.159H353.382C366.635 206.159 376.149 203.441 376.149 188.489C376.149 173.651 366.635 170.932 353.382 170.932H340.13V206.159ZM401.535 241.952C397.004 241.952 394.399 239.46 394.399 234.816V162.097H404.706V233.117H444.69V241.952H401.535ZM448.991 162.097H494.978V170.932H477.082V233.117H494.978V241.952H448.991V233.117H466.887V170.932H448.991V162.097ZM504.526 241.952V162.097H525.141L563.2 239.12H566.032L564.333 231.984V162.097H574.527V241.952H553.912L515.967 164.929H513.022L514.834 172.065V241.952H504.526ZM585.142 241.952V162.097H640.644V170.932H595.45V197.664H634.981V206.272H595.45V233.117H640.644V241.952H585.142Z" fill="#141414"/>
<path d="M809.155 241.952V162.097H864.657V170.932H819.463V197.664H858.994V206.272H819.463V233.117H864.657V241.952H809.155ZM872.626 241.952V162.097H898.338C918.047 162.097 938.775 167.648 938.775 201.968C938.775 236.402 918.047 241.952 898.338 241.952H872.626ZM882.933 233.117H898.338C912.497 233.117 928.468 230.852 928.468 201.968C928.468 173.198 912.383 170.932 898.338 170.932H882.933V233.117ZM945.78 212.276V162.097H956.088V210.124C956.088 226.094 961.185 234.25 977.835 234.25C994.486 234.25 999.809 226.094 999.809 210.124V162.097H1010.12V212.276C1010.12 232.211 999.809 243.198 977.835 243.198C955.861 243.198 945.78 232.211 945.78 212.276ZM1011.62 241.952L1036.99 162.097H1059.07L1084.56 241.952H1073.8L1064.17 211.369H1031.89L1022.26 241.952H1011.62ZM1034.72 202.534H1061.34L1049.45 164.929H1046.62L1034.72 202.534ZM1123.62 243.198C1099.83 243.198 1085.79 225.415 1085.79 201.968C1085.79 178.635 1099.83 160.851 1123.62 160.851C1144.23 160.851 1157.71 173.085 1160.09 192.907H1149.78C1147.97 178.295 1138.8 169.8 1123.62 169.8C1105.61 169.8 1096.21 183.052 1096.21 201.968C1096.21 220.997 1105.61 234.25 1123.62 234.25C1138.8 234.25 1147.97 225.641 1149.78 211.03H1160.09C1157.71 230.965 1144.23 243.198 1123.62 243.198ZM1160.72 162.097H1225.96V170.932H1198.55V241.952H1188.24V170.932H1160.72V162.097ZM1231.98 162.097H1277.97V170.932H1260.07V233.117H1277.97V241.952H1231.98V233.117H1249.88V170.932H1231.98V162.097ZM1280.51 201.968C1280.51 178.635 1294.56 160.851 1318.23 160.851C1341.9 160.851 1355.84 178.635 1355.84 201.968C1355.84 225.415 1341.9 243.198 1318.23 243.198C1294.56 243.198 1280.51 225.415 1280.51 201.968ZM1290.93 201.968C1290.93 220.771 1299.88 234.25 1318.23 234.25C1336.58 234.25 1345.53 220.771 1345.53 201.968C1345.53 183.279 1336.58 169.8 1318.23 169.8C1299.88 169.8 1290.93 183.279 1290.93 201.968ZM1364.93 241.952V162.097H1385.54L1423.6 239.12H1426.43L1424.73 231.984V162.097H1434.93V241.952H1414.31L1376.37 164.929H1373.42L1375.23 172.065V241.952H1364.93Z" fill="#141414"/>
<path d="M720.587 153.984C720.979 149.845 727.021 149.845 727.413 153.984L729.639 177.452C729.912 180.328 733.401 181.598 735.459 179.57L752.249 163.024C755.211 160.105 759.839 163.988 757.479 167.412L744.099 186.82C742.459 189.199 744.316 192.414 747.196 192.184L770.693 190.301C774.839 189.969 775.888 195.918 771.879 197.024L749.154 203.291C746.369 204.059 745.724 207.716 748.079 209.39L767.289 223.052C770.678 225.462 767.658 230.694 763.876 228.964L742.439 219.158C739.812 217.956 736.968 220.343 737.695 223.139L743.63 245.953C744.677 249.977 739 252.043 737.215 248.287L727.097 226.996C725.857 224.387 722.143 224.387 720.903 226.996L710.785 248.287C709 252.043 703.323 249.977 704.37 245.953L710.305 223.139C711.032 220.343 708.188 217.956 705.561 219.158L684.124 228.964C680.342 230.694 677.322 225.462 680.711 223.052L699.921 209.39C702.276 207.716 701.631 204.059 698.846 203.291L676.121 197.024C672.112 195.918 673.161 189.969 677.307 190.301L700.804 192.184C703.684 192.414 705.541 189.199 703.901 186.82L690.521 167.412C688.161 163.988 692.789 160.105 695.751 163.024L712.541 179.57C714.599 181.598 718.088 180.328 718.361 177.452L720.587 153.984Z" fill="#336FE2"/>
<path d="M211.751 766.534L111.603 403.559L202.958 395.742L251.811 420.168L275.26 514.454L304.572 391.345L392.995 383.529L441.848 407.955L343.654 783.633L260.604 790.961L211.751 766.534ZM308.48 396.231L265.978 576.986C263.698 587.733 261.744 598.481 260.116 609.229C258.487 619.65 257.347 628.281 256.696 635.121C256.045 641.96 255.719 645.38 255.719 645.38H254.253C254.253 645.38 253.765 642.123 252.788 635.609C252.136 628.77 250.996 620.302 249.368 610.206C247.74 600.109 245.623 589.687 243.017 578.94L199.05 401.116L117.954 407.955L215.171 761.649L290.404 754.81L386.156 389.391L308.48 396.231ZM534.027 766.534L433.879 403.559L525.233 395.742L574.086 420.168L597.535 514.454L626.847 391.345L715.271 383.529L764.123 407.955L665.929 783.633L582.88 790.961L534.027 766.534ZM630.755 396.231L588.253 576.986C585.974 587.733 584.019 598.481 582.391 609.229C580.763 619.65 579.623 628.281 578.971 635.121C578.32 641.96 577.994 645.38 577.994 645.38H576.529C576.529 645.38 576.04 642.123 575.063 635.609C574.412 628.77 573.272 620.302 571.643 610.206C570.015 600.109 567.898 589.687 565.293 578.94L521.325 401.116L440.23 407.955L537.447 761.649L612.68 754.81L708.431 389.391L630.755 396.231ZM794.259 767.023V395.742L879.263 387.926L928.116 412.352V783.633L843.112 790.961L794.259 767.023ZM799.145 400.139V761.649L874.378 754.81V393.299L799.145 400.139ZM1039.55 766.534V505.661L1008.78 508.103L959.923 483.677V401.604L1203.21 380.109L1252.06 404.536V486.608L1172.43 493.448V782.656L1088.41 790.472L1039.55 766.534ZM1198.32 457.785V385.483L964.809 406.001V478.303L1044.44 471.464V761.161L1118.69 754.81V464.624L1198.32 457.785Z" fill="#141414"/>
</svg>
