<svg width="5768" height="990" viewBox="0 0 5768 990" fill="none" xmlns="http://www.w3.org/2000/svg">
<g clip-path="url(#clip0_372_28)" filter="url(#filter0_d_372_28)">
<rect width="5760" height="982" transform="translate(4)" fill="#1E1E1E"/>
<rect x="482" y="242" width="604" height="161" rx="9" fill="#F68242"/>
<rect x="148" y="162" width="604" height="161" rx="9" fill="#E76DFB"/>
<path d="M165.38 615L154.685 519.41H176.075L183.963 589.197L210.568 568.742V519.41H231.959V568.876L258.296 589.197L266.318 519.41H287.709L277.013 615H259.098L221.263 584.384L183.295 615H165.38ZM303.715 615V519.41H408.53V536.79H325.106V557.913H400.776V575.293H325.106V597.62H408.53V615H303.715ZM477.938 615L467.243 519.41H488.634L496.522 589.197L523.126 568.742V519.41H544.517V568.876L570.855 589.197L578.876 519.41H600.267L589.572 615H571.657L533.822 584.384L495.853 615H477.938ZM616.274 615V519.41H721.088V536.79H637.664V557.913H713.334V575.293H637.664V597.62H721.088V615H616.274ZM735.735 615V519.41H757.126V597.62H827.047V615H735.735ZM885.595 615.668C867.948 615.668 854.445 611.613 845.086 603.502C835.728 595.303 831.048 583.181 831.048 567.138C831.048 551.184 835.728 539.107 845.086 530.907C854.445 522.708 867.948 518.652 885.595 518.741L933.724 519.009V536.121H887.066C875.479 536.121 866.878 538.572 861.263 543.475C855.648 548.377 852.84 556.264 852.84 567.138C852.84 578.012 855.648 585.944 861.263 590.935C866.878 595.837 875.479 598.288 887.066 598.288H935.061V615.668H885.595ZM994.068 615.668C977.044 615.668 963.853 611.613 954.495 603.502C945.136 595.303 940.457 583.181 940.457 567.138C940.457 551.184 945.136 539.152 954.495 531.041C963.853 522.841 977.356 518.741 995.003 518.741H1019.07C1036.72 518.741 1050.22 522.841 1059.58 531.041C1068.94 539.152 1073.61 551.184 1073.61 567.138C1073.61 583.181 1068.94 595.303 1059.58 603.502C1050.22 611.613 1036.94 615.668 1019.74 615.668H994.068ZM996.474 536.121C986.581 536.121 978.871 537.904 973.345 541.469C967.819 545.034 964.343 550.694 962.917 558.448H1051.15C1049.73 550.694 1046.25 545.034 1040.73 541.469C1035.2 537.904 1027.49 536.121 1017.6 536.121H996.474ZM996.875 598.288H1017.6C1027.58 598.288 1035.29 596.506 1040.73 592.941C1046.25 589.376 1049.73 583.671 1051.15 575.828H962.917C964.343 583.671 967.819 589.376 973.345 592.941C978.871 596.506 986.715 598.288 996.875 598.288ZM1086.94 615V519.41H1104.85L1149.11 550.427H1149.77L1194.03 519.41H1211.94V615H1190.55V546.148L1160.2 566.47V615H1138.81V566.47L1108.33 546.148V615H1086.94ZM1230.68 615V519.41H1335.5V536.79H1252.08V557.913H1327.75V575.293H1252.08V597.62H1335.5V615H1230.68ZM1438.2 615V580.908L1387.53 519.41H1414L1448.89 562.726L1483.65 519.41H1510.12L1459.72 580.775V615H1438.2ZM1557.69 615.668C1540.67 615.668 1527.48 611.613 1518.12 603.502C1508.76 595.303 1504.08 583.181 1504.08 567.138C1504.08 551.184 1508.76 539.152 1518.12 531.041C1527.48 522.841 1540.98 518.741 1558.63 518.741H1582.69C1600.34 518.741 1613.84 522.841 1623.2 531.041C1632.56 539.152 1637.24 551.184 1637.24 567.138C1637.24 583.181 1632.56 595.303 1623.2 603.502C1613.84 611.613 1600.56 615.668 1583.36 615.668H1557.69ZM1560.1 536.121C1550.2 536.121 1542.49 537.904 1536.97 541.469C1531.44 545.034 1527.97 550.694 1526.54 558.448H1614.78C1613.35 550.694 1609.88 545.034 1604.35 541.469C1598.82 537.904 1591.11 536.121 1581.22 536.121H1560.1ZM1560.5 598.288H1581.22C1591.2 598.288 1598.91 596.506 1604.35 592.941C1609.88 589.376 1613.35 583.671 1614.78 575.828H1526.54C1527.97 583.671 1531.44 589.376 1536.97 592.941C1542.49 596.506 1550.34 598.288 1560.5 598.288ZM1689.2 615.668C1679.48 615.668 1671.82 614.421 1666.2 611.925C1660.59 609.34 1656.58 605.463 1654.17 600.294C1651.77 595.124 1650.56 588.618 1650.56 580.775V519.41H1671.95V580.775C1671.95 587.548 1673.51 592.183 1676.63 594.679C1679.84 597.085 1685.23 598.288 1692.81 598.288H1718.61C1726.19 598.288 1731.54 597.085 1734.66 594.679C1737.86 592.183 1739.47 587.548 1739.47 580.775V519.41H1760.86V580.775C1760.86 588.618 1759.66 595.124 1757.25 600.294C1754.84 605.463 1750.83 609.34 1745.22 611.925C1739.6 614.421 1731.94 615.668 1722.22 615.668H1689.2ZM1822.95 567.807V519.41H1940.6V567.807H1918.94V536.79H1889.8V615H1868.41V536.79H1844.61V567.807H1822.95ZM2004.2 615.668C1987.18 615.668 1973.99 611.613 1964.63 603.502C1955.27 595.303 1950.59 583.181 1950.59 567.138C1950.59 551.184 1955.27 539.152 1964.63 531.041C1973.99 522.841 1987.49 518.741 2005.14 518.741H2029.2C2046.85 518.741 2060.35 522.841 2069.71 531.041C2079.07 539.152 2083.75 551.184 2083.75 567.138C2083.75 583.181 2079.07 595.303 2069.71 603.502C2060.35 611.613 2047.07 615.668 2029.87 615.668H2004.2ZM2006.61 536.121C1996.72 536.121 1989.01 537.904 1983.48 541.469C1977.95 545.034 1974.48 550.694 1973.05 558.448H2061.29C2059.86 550.694 2056.39 545.034 2050.86 541.469C2045.34 537.904 2037.63 536.121 2027.73 536.121H2006.61ZM2007.01 598.288H2027.73C2037.72 598.288 2045.42 596.506 2050.86 592.941C2056.39 589.376 2059.86 583.671 2061.29 575.828H1973.05C1974.48 583.671 1977.95 589.376 1983.48 592.941C1989.01 596.506 1996.85 598.288 2007.01 598.288ZM2140.47 567.807V519.41H2258.12V567.807H2236.46V536.79H2207.32V615H2185.93V536.79H2162.13V567.807H2140.47ZM2273.46 615V519.41H2294.85V558.582H2362.23V519.41H2383.62V615H2362.23V575.962H2294.85V615H2273.46ZM2402.32 615V519.41H2507.14V536.79H2423.71V557.913H2499.38V575.293H2423.71V597.62H2507.14V615H2402.32ZM2568.52 615V519.41H2586.44L2630.69 550.427H2631.36L2675.61 519.41H2693.53V615H2672.13V546.148L2641.79 566.47V615H2620.4V566.47L2589.91 546.148V615H2568.52ZM2760.53 615.668C2743.51 615.668 2730.32 611.613 2720.96 603.502C2711.6 595.303 2706.92 583.181 2706.92 567.138C2706.92 551.184 2711.6 539.152 2720.96 531.041C2730.32 522.841 2743.82 518.741 2761.47 518.741H2785.53C2803.18 518.741 2816.68 522.841 2826.04 531.041C2835.4 539.152 2840.08 551.184 2840.08 567.138C2840.08 583.181 2835.4 595.303 2826.04 603.502C2816.68 611.613 2803.4 615.668 2786.2 615.668H2760.53ZM2762.94 536.121C2753.04 536.121 2745.34 537.904 2739.81 541.469C2734.28 545.034 2730.81 550.694 2729.38 558.448H2817.62C2816.19 550.694 2812.72 545.034 2807.19 541.469C2801.66 537.904 2793.95 536.121 2784.06 536.121H2762.94ZM2763.34 598.288H2784.06C2794.04 598.288 2801.75 596.506 2807.19 592.941C2812.72 589.376 2816.19 583.671 2817.62 575.828H2729.38C2730.81 583.671 2734.28 589.376 2739.81 592.941C2745.34 596.506 2753.18 598.288 2763.34 598.288ZM2850.33 615.668V598.288L2927.2 598.422C2931.12 598.422 2934.11 597.531 2936.16 595.748C2938.3 593.877 2939.37 590.891 2939.37 586.791C2939.37 582.691 2938.3 579.75 2936.16 577.967C2934.11 576.095 2931.12 575.16 2927.2 575.16H2879.34C2869.45 575.16 2861.74 572.798 2856.21 568.074C2850.77 563.261 2848.06 556.22 2848.06 546.951C2848.06 537.681 2850.77 530.685 2856.21 525.961C2861.74 521.148 2869.45 518.741 2879.34 518.741H2954.47V536.121L2881.61 535.988C2877.78 535.988 2874.79 536.879 2872.65 538.662C2870.52 540.355 2869.45 543.118 2869.45 546.951C2869.45 550.783 2870.52 553.591 2872.65 555.373C2874.79 557.067 2877.78 557.913 2881.61 557.913H2929.47C2939.37 557.913 2947.03 560.364 2952.47 565.266C2957.99 570.079 2960.76 577.254 2960.76 586.791C2960.76 596.238 2957.99 603.413 2952.47 608.315C2947.03 613.217 2939.37 615.668 2929.47 615.668H2850.33ZM2970.83 567.807V519.41H3088.48V567.807H3066.82V536.79H3037.67V615H3016.28V536.79H2992.49V567.807H2970.83ZM3150.56 615V519.41H3171.95V558.582H3239.33V519.41H3260.72V615H3239.33V575.962H3171.95V615H3150.56ZM3271.4 615L3314.44 519.41H3347.47L3390.52 615H3367.25L3358.16 594.812H3303.75L3294.66 615H3271.4ZM3311.5 577.432H3350.41L3331.82 536.121H3330.09L3311.5 577.432ZM3401.23 615V519.41H3481.31C3491.2 519.41 3498.87 521.905 3504.31 526.897C3509.83 531.888 3512.59 539.464 3512.59 549.624C3512.59 559.785 3509.83 567.361 3504.31 572.352C3498.87 577.343 3491.2 579.839 3481.31 579.839H3422.62V615H3401.23ZM3478.77 536.79H3422.62V562.325L3478.77 562.459C3482.69 562.459 3485.68 561.478 3487.73 559.518C3489.87 557.557 3490.94 554.259 3490.94 549.624C3490.94 544.901 3489.87 541.603 3487.73 539.731C3485.68 537.77 3482.69 536.79 3478.77 536.79ZM3525.91 615V519.41H3605.99C3615.89 519.41 3623.55 521.905 3628.99 526.897C3634.52 531.888 3637.28 539.464 3637.28 549.624C3637.28 559.785 3634.52 567.361 3628.99 572.352C3623.55 577.343 3615.89 579.839 3605.99 579.839H3547.3V615H3525.91ZM3603.45 536.79H3547.3V562.325L3603.45 562.459C3607.38 562.459 3610.36 561.478 3612.41 559.518C3614.55 557.557 3615.62 554.259 3615.62 549.624C3615.62 544.901 3614.55 541.603 3612.41 539.731C3610.36 537.77 3607.38 536.79 3603.45 536.79ZM3650.6 615V519.41H3755.41V536.79H3671.99V557.913H3747.66V575.293H3671.99V597.62H3755.41V615H3650.6ZM3770.06 615V519.41H3791.72L3859.36 588.128V519.41H3880.76V615H3859.1L3791.45 546.148V615H3770.06ZM3899.44 615V519.41H3920.83V615H3899.44ZM3939.52 615V519.41H3961.18L4028.83 588.128V519.41H4050.22V615H4028.56L3960.91 546.148V615H3939.52ZM4115.43 615.668C4099.12 615.668 4086.38 611.613 4077.2 603.502C4068.11 595.303 4063.56 583.181 4063.56 567.138C4063.56 551.184 4068.19 539.152 4077.46 531.041C4086.82 522.841 4100.37 518.741 4118.11 518.741H4168.91V536.121H4119.58C4107.9 536.121 4099.26 538.572 4093.64 543.475C4088.11 548.377 4085.35 556.264 4085.35 567.138C4085.35 577.477 4087.8 585.142 4092.71 590.133C4097.61 595.035 4104.78 597.709 4114.23 598.155V560.988H4174.12V615.668H4115.43ZM4134.28 598.288H4152.73V578.368H4134.28V598.288ZM4239.55 615V519.41H4319.63C4329.52 519.41 4337.19 521.905 4342.63 526.897C4348.15 531.888 4350.91 539.464 4350.91 549.624C4350.91 559.785 4348.15 567.361 4342.63 572.352C4337.19 577.343 4329.52 579.839 4319.63 579.839H4260.94V615H4239.55ZM4317.09 536.79H4260.94V562.325L4317.09 562.459C4321.01 562.459 4324 561.478 4326.05 559.518C4328.19 557.557 4329.26 554.259 4329.26 549.624C4329.26 544.901 4328.19 541.603 4326.05 539.731C4324 537.77 4321.01 536.79 4317.09 536.79ZM4364.23 615V519.41H4385.62V597.62H4455.54V615H4364.23ZM4460.92 615L4503.97 519.41H4536.99L4580.04 615H4556.78L4547.69 594.812H4493.27L4484.18 615H4460.92ZM4501.03 577.432H4539.93L4521.35 536.121H4519.61L4501.03 577.432ZM4637.34 615.668C4619.69 615.668 4606.19 611.613 4596.83 603.502C4587.47 595.303 4582.79 583.181 4582.79 567.138C4582.79 551.184 4587.47 539.107 4596.83 530.907C4606.19 522.708 4619.69 518.652 4637.34 518.741L4685.47 519.009V536.121H4638.81C4627.22 536.121 4618.62 538.572 4613.01 543.475C4607.39 548.377 4604.59 556.264 4604.59 567.138C4604.59 578.012 4607.39 585.944 4613.01 590.935C4618.62 595.837 4627.22 598.288 4638.81 598.288H4686.81V615.668H4637.34ZM4700.16 615V519.41H4804.98V536.79H4721.55V557.913H4797.22V575.293H4721.55V597.62H4804.98V615H4700.16ZM4862.35 583.716V568.341H4903.26V583.716H4862.35ZM4998.36 615L4955.31 519.41H4978.58L5014.01 598.288H5015.74L5051.17 519.41H5074.43L5031.39 615H4998.36ZM5117.43 615L5074.38 519.41H5097.65L5133.08 598.288H5134.81L5170.24 519.41H5193.5L5150.46 615H5117.43ZM5202.81 615V519.41H5224.2V615H5202.81ZM5239.55 567.807V519.41H5357.2V567.807H5335.54V536.79H5306.4V615H5285.01V536.79H5261.21V567.807H5239.55Z" fill="white"/>
<circle cx="5628.5" cy="843.5" r="228.5" fill="#91F642"/>
<path d="M2207.6 213.62C2208.17 207.682 2216.83 207.682 2217.4 213.62L2220.59 247.286C2220.98 251.411 2225.99 253.233 2228.94 250.324L2253.02 226.588C2257.27 222.401 2263.91 227.971 2260.53 232.882L2241.33 260.724C2238.98 264.136 2241.64 268.749 2245.77 268.418L2279.48 265.717C2285.43 265.241 2286.93 273.775 2281.18 275.361L2248.58 284.352C2244.59 285.454 2243.66 290.7 2247.04 293.101L2274.6 312.699C2279.46 316.157 2275.13 323.662 2269.7 321.18L2238.95 307.113C2235.18 305.389 2231.1 308.813 2232.15 312.824L2240.66 345.551C2242.16 351.324 2234.02 354.288 2231.46 348.9L2216.94 318.358C2215.16 314.615 2209.84 314.615 2208.06 318.358L2193.54 348.9C2190.98 354.288 2182.84 351.324 2184.34 345.551L2192.85 312.824C2193.9 308.813 2189.82 305.389 2186.05 307.113L2155.3 321.18C2149.87 323.662 2145.54 316.157 2150.4 312.699L2177.96 293.101C2181.34 290.7 2180.41 285.454 2176.42 284.352L2143.82 275.361C2138.07 273.775 2139.57 265.241 2145.52 265.717L2179.23 268.418C2183.36 268.749 2186.02 264.136 2183.67 260.724L2164.47 232.882C2161.09 227.971 2167.73 222.401 2171.98 226.588L2196.06 250.324C2199.01 253.233 2204.02 251.411 2204.41 247.286L2207.6 213.62Z" fill="#F6D942"/>
</g>
<defs>
<filter id="filter0_d_372_28" x="0" y="0" width="5768" height="990" filterUnits="userSpaceOnUse" color-interpolation-filters="sRGB">
<feFlood flood-opacity="0" result="BackgroundImageFix"/>
<feColorMatrix in="SourceAlpha" type="matrix" values="0 0 0 0 0 0 0 0 0 0 0 0 0 0 0 0 0 0 127 0" result="hardAlpha"/>
<feOffset dy="4"/>
<feGaussianBlur stdDeviation="2"/>
<feComposite in2="hardAlpha" operator="out"/>
<feColorMatrix type="matrix" values="0 0 0 0 0 0 0 0 0 0 0 0 0 0 0 0 0 0 0.25 0"/>
<feBlend mode="normal" in2="BackgroundImageFix" result="effect1_dropShadow_372_28"/>
<feBlend mode="normal" in="SourceGraphic" in2="effect1_dropShadow_372_28" result="shape"/>
</filter>
<clipPath id="clip0_372_28">
<rect width="5760" height="982" fill="white" transform="translate(4)"/>
</clipPath>
</defs>
</svg>
