<svg width="2805" height="317" viewBox="0 0 2805 317" fill="none" xmlns="http://www.w3.org/2000/svg">
<path d="M0.277112 5.20562H250.935V39.1488H145.624V312H106.023V39.1488H0.277112V5.20562ZM318.971 312V5.20562H432.55C504.353 5.20562 552.221 21.3069 552.221 87.4526C552.221 135.321 527.417 153.163 490.862 159.691V170.57H524.371C545.694 170.57 552.657 182.755 552.657 200.597V312H513.491V190.588H358.571V312H318.971ZM358.571 156.645H432.55C482.594 156.645 513.056 147.941 513.056 96.156C513.056 43.5005 482.159 39.1488 432.55 39.1488H358.571V156.645ZM624.497 5.20562H801.176V39.1488H732.419V278.057H801.176V312H624.497V278.057H693.254V39.1488H624.497V5.20562ZM869.283 197.986V5.20562H908.883V189.717C908.883 251.076 928.466 282.408 992.436 282.408C1056.41 282.408 1076.86 251.076 1076.86 189.717V5.20562H1116.46V197.986C1116.46 274.575 1076.86 316.787 992.436 316.787C908.013 316.787 869.283 274.575 869.283 197.986ZM1196.79 312V5.20562H1275.99L1357.37 301.121H1368.68L1450.06 5.20562H1528.82V312H1489.22V53.9446L1495.75 16.0849H1484.87L1402.19 312H1322.99L1240.74 16.0849H1229.43L1236.39 53.9446V312H1196.79ZM1613.34 312V5.20562H1702.55C1784.37 5.20562 1830.49 28.7048 1830.49 106.6C1830.49 184.931 1784.37 208.43 1702.55 208.43H1652.94V312H1613.34ZM1652.94 174.486H1703.86C1754.77 174.486 1791.33 164.042 1791.33 106.6C1791.33 49.5929 1754.77 39.1488 1703.86 39.1488H1652.94V174.486ZM1904.96 5.20562H1944.56V143.589H2119.5V5.20562H2159.1V312H2119.5V177.968H1944.56V312H1904.96V5.20562ZM2490.5 230.188C2490.5 285.02 2453.51 316.787 2371.69 316.787C2278.57 316.787 2230.7 273.705 2230.7 196.68H2270.74C2270.74 255.428 2305.11 283.279 2372.57 283.279C2425.66 283.279 2450.46 266.307 2450.46 232.364C2450.46 208.43 2434.79 190.153 2399.11 181.014L2313.38 158.82C2265.08 146.2 2245.06 118.35 2245.06 81.7954C2245.06 28.7048 2283.36 0.418764 2353.85 0.418764C2437.41 0.418764 2481.36 40.4543 2481.36 106.6H2440.89C2440.89 57.8611 2411.73 33.4916 2353.85 33.4916C2309.03 33.4916 2285.1 48.7226 2285.1 80.0547C2285.1 101.813 2298.15 118.35 2331.66 127.053L2416.52 148.376C2466.13 160.996 2490.5 189.717 2490.5 230.188Z" fill="white" fill-opacity="0.6"/>
<path d="M2767.17 316.352C2745.85 316.352 2730.18 299.815 2730.18 279.362C2730.18 258.909 2745.85 242.808 2767.17 242.808C2788.06 242.808 2804.6 258.909 2804.6 279.362C2804.6 299.815 2788.06 316.352 2767.17 316.352Z" fill="#CA6959"/>
</svg>
