<svg width="2104" height="238" viewBox="0 0 2104 238" fill="none" xmlns="http://www.w3.org/2000/svg">
<path d="M0.0828343 3.65421H188.076V29.1116H109.093V233.75H79.3924V29.1116H0.0828343V3.65421ZM239.103 233.75V3.65421H324.287C378.14 3.65421 414.041 15.7302 414.041 65.3395C414.041 101.241 395.438 114.622 368.022 119.518V127.677H393.153C409.145 127.677 414.367 136.816 414.367 150.197V233.75H384.993V142.691H268.803V233.75H239.103ZM268.803 117.233H324.287C361.821 117.233 384.667 110.706 384.667 71.867C384.667 32.3754 361.494 29.1116 324.287 29.1116H268.803V117.233ZM468.248 3.65421H600.757V29.1116H549.189V208.293H600.757V233.75H468.248V208.293H519.815V29.1116H468.248V3.65421ZM651.837 148.239V3.65421H681.538V142.038C681.538 188.057 696.225 211.556 744.202 211.556C792.179 211.556 807.519 188.057 807.519 142.038V3.65421H837.219V148.239C837.219 205.682 807.519 237.34 744.202 237.34C680.885 237.34 651.837 205.682 651.837 148.239ZM897.467 233.75V3.65421H956.867L1017.9 225.591H1026.39L1087.42 3.65421H1146.49V233.75H1116.79V40.2084L1121.69 11.8136H1113.53L1051.52 233.75H992.116L930.431 11.8136H921.945L927.167 40.2084V233.75H897.467ZM1209.88 233.75V3.65421H1276.79C1338.15 3.65421 1372.75 21.2786 1372.75 79.7001C1372.75 138.448 1338.15 156.072 1276.79 156.072H1239.58V233.75H1209.88ZM1239.58 130.615H1277.77C1315.96 130.615 1343.37 122.782 1343.37 79.7001C1343.37 36.9447 1315.96 29.1116 1277.77 29.1116H1239.58V130.615ZM1428.59 3.65421H1458.29V107.442H1589.5V3.65421H1619.2V233.75H1589.5V133.226H1458.29V233.75H1428.59V3.65421ZM1867.75 172.391C1867.75 213.515 1840.01 237.34 1778.65 237.34C1708.8 237.34 1672.9 205.029 1672.9 147.26H1702.93C1702.93 191.321 1728.71 212.209 1779.3 212.209C1819.12 212.209 1837.72 199.48 1837.72 174.023C1837.72 156.072 1825.97 142.364 1799.21 135.511L1734.91 118.865C1698.68 109.4 1683.67 88.5122 1683.67 61.0966C1683.67 21.2786 1712.39 0.064073 1765.26 0.064073C1827.93 0.064073 1860.89 30.0908 1860.89 79.7001H1830.54C1830.54 43.1458 1808.67 24.8687 1765.26 24.8687C1731.65 24.8687 1713.7 36.2919 1713.7 59.7911C1713.7 76.1099 1723.49 88.5122 1748.62 95.0398L1812.26 111.032C1849.47 120.497 1867.75 142.038 1867.75 172.391Z" fill="white" fill-opacity="0.6"/>
<path d="M2075.25 237.014C2059.26 237.014 2047.51 224.611 2047.51 209.272C2047.51 193.932 2059.26 181.856 2075.25 181.856C2090.92 181.856 2103.32 193.932 2103.32 209.272C2103.32 224.611 2090.92 237.014 2075.25 237.014Z" fill="#CA6959"/>
</svg>
