<svg width="102" height="101" viewBox="0 0 102 101" fill="none" xmlns="http://www.w3.org/2000/svg">
<path d="M47.5868 3.98432C47.9794 -0.15543 54.0206 -0.155426 54.4132 3.98432L56.6393 27.4522C56.9121 30.3282 60.4015 31.5982 62.4591 29.5704L79.2492 13.0239C82.211 10.105 86.8388 13.9882 84.4786 17.4119L71.099 36.8201C69.4593 39.1986 71.316 42.4145 74.1956 42.1837L97.6935 40.3008C101.839 39.9686 102.888 45.918 98.8789 47.0236L76.1541 53.2909C73.3692 54.059 72.7244 57.7159 75.0787 59.3902L94.2894 73.0519C97.6782 75.4618 94.6576 80.6936 90.8762 78.9638L69.4394 69.1577C66.8123 67.9559 63.9677 70.3428 64.695 73.1387L70.6297 95.9526C71.6766 99.977 65.9998 102.043 64.2149 98.2874L54.0967 76.9961C52.8567 74.3869 49.1433 74.3869 47.9033 76.9961L37.7851 98.2874C36.0002 102.043 30.3234 99.977 31.3703 95.9526L37.305 73.1387C38.0323 70.3428 35.1877 67.9559 32.5606 69.1577L11.1238 78.9638C7.34236 80.6936 4.32179 75.4618 7.71058 73.0519L26.9213 59.3902C29.2756 57.7159 28.6308 54.059 25.8459 53.2909L3.1211 47.0236C-0.887565 45.918 0.161478 39.9686 4.30652 40.3008L27.8044 42.1837C30.684 42.4145 32.5407 39.1986 30.901 36.8201L17.5214 17.4118C15.1612 13.9882 19.789 10.105 22.7508 13.0239L39.5409 29.5704C41.5985 31.5982 45.0879 30.3282 45.3607 27.4522L47.5868 3.98432Z" fill="#E9E9E9"/>
</svg>
